<svg width="513.8" height="757.04" fill="none" viewBox="0 0 513.8 757.04" xmlns="http://www.w3.org/2000/svg">
  <g stroke="#fff" stroke-width="2.4663">
    <path d="m17.102 248.92-14.048-14.054-4.3e-4 -1e-3c-1.1604-1.16-1.8198-2.742-1.8198-4.388v-104.53c0-1.445 0.56738-2.821 1.5827-3.835l0.00756-8e-3 117.29-119.29 3e-3 -0.00369c1.015-1.0125 2.39-1.5784 3.835-1.5784h117.28c2.988 0 5.421 2.4203 5.421 5.4175v230.48c0 2.986-2.421 5.418-5.421 5.418h-224.13v1.233z"/>
    <path d="m376.72 242.72c-67.267-0.673-121.4-56.347-119.52-124.16 1.829-65.73 57.451-117.32 123.31-117.32h116.73c2.939 0 5.326 2.3868 5.326 5.3231v224.26c0 1.618-0.646 3.183-1.788 4.325l-7.887 7.883-5.908 5.906v-6.267h-1.234l-107.8 0.048h-1.232z"/>
    <path d="m16.816 754.06-5.9058-5.934-7.8866-7.926c-1.1431-1.148-1.7904-2.725-1.7904-4.355l-4e-5 -225.45c0-2.961 2.3933-5.358 5.3258-5.358h116.75c65.835 0 121.46 51.861 123.29 117.93 1.894 68.603-52.917 124.84-120.75 124.84h-1e-3l-107.8-0.048h-1.2337v1.233z"/>
    <path d="m244.83 486.99-4e-3 4e-3 -8.114 7.89-6.164 5.997v-6.345l-1.232-1e-3 -138.18-0.126h-0.0011c-2.0825 0-3.9767-1.141-4.9284-2.914l-84.323-230.47-0.02658-0.072-0.03543-0.069c-1.8106-3.512 0.79337-7.75 4.9776-7.75h234.3c3.1 0 5.552 2.432 5.552 5.364v224.2c0 1.607-0.671 3.18-1.821 4.289z"/>
    <path d="m500.78 487.04-13.811 13.79v-6.58l-1.237 5e-3 -105.86 0.363h-0.016c-67.788 0-122.71-54.07-122.71-120.74s54.92-120.74 122.71-120.74 122.71 54.07 122.71 120.74v108.84c0 1.615-0.646 3.179-1.788 4.319z"/>
  </g>
  <mask id="path-6-inside-1_1988_4397" fill="#fff">
    <path d="m385.48 504.68h-122.64c-3.43 0-6.211 2.795-6.211 6.241v226.83c0 1.858 0.727 3.637 2.039 4.955l15.14 15.214v-7.654h111.67c1.644 0 3.224-0.652 4.394-1.827l112.82-121.35c2.418-2.43 2.418-6.384 0-8.83l-112.82-111.74c-1.17-1.175-2.75-1.826-4.394-1.826"/>
  </mask>
  <path transform="translate(-.70508 -.87256)" d="m258.67 742.7 1.748-1.74zm15.14 15.214-1.748 1.74 4.214 4.235v-5.975zm0-7.654v-2.467h-2.466v2.467zm116.06-1.827 1.748 1.74 0.058-0.06zm112.82-121.35-1.748-1.74-0.029 0.03-0.029 0.031zm0-8.83 1.754-1.734-0.018-0.018zm-112.82-111.74-1.749 1.74 7e-3 6e-3 6e-3 6e-3zm-4.394-4.308h-122.64v4.932h122.64zm-122.64 0c-4.803 0-8.677 3.91-8.677 8.707h4.932c0-2.095 1.689-3.775 3.745-3.775zm-8.677 8.707v226.83h4.932v-226.83zm0 226.83c0 2.504 0.98 4.91 2.756 6.695l3.497-3.48c-0.848-0.851-1.321-2.002-1.321-3.215zm2.756 6.695 15.141 15.214 3.496-3.479-15.14-15.215zm19.355 13.474v-7.654h-4.932v7.654zm-2.466-5.188h111.67v-4.933h-111.67zm111.67 0c2.297 0 4.507-0.911 6.142-2.553l-3.497-3.479c-0.704 0.708-1.655 1.099-2.645 1.099zm6.2-2.613 112.82-121.35-3.613-3.358-112.82 121.35zm112.77-121.29c3.378-3.395 3.37-8.9 5e-3 -12.304l-3.507 3.468c1.471 1.488 1.463 3.892 5e-3 5.356zm-0.013-12.322-112.82-111.74-3.471 3.504 112.82 111.74zm-112.81-111.73c-1.635-1.642-3.845-2.553-6.142-2.553v4.933c0.99 0 1.941 0.392 2.645 1.1z" fill="#fff" mask="url(#path-6-inside-1_1988_4397)"/>
</svg>
